<svg xmlns="http://www.w3.org/2000/svg" width="36" height="36" viewBox="0 0 36 36" fill="none">
  <path d="M18 0C14.4399 0 10.9598 1.05568 7.99974 3.03355C5.03966 5.01141 2.73255 7.82263 1.37018 11.1117C0.00779915 14.4008 -0.348661 18.02 0.345873 21.5116C1.04041 25.0033 2.75474 28.2106 5.27209 30.7279C7.78943 33.2453 10.9967 34.9596 14.4884 35.6541C17.98 36.3487 21.5992 35.9922 24.8883 34.6298C28.1774 33.2674 30.9886 30.9603 32.9665 28.0003C34.9443 25.0402 36 21.5601 36 18C35.9947 13.2277 34.0966 8.65243 30.7221 5.27792C27.3476 1.90342 22.7723 0.00529371 18 0ZM9.92834 29.4283C10.8568 28.1588 12.0716 27.1262 13.4741 26.4144C14.8766 25.7025 16.4272 25.3316 18 25.3316C19.5728 25.3316 21.1234 25.7025 22.5259 26.4144C23.9284 27.1262 25.1432 28.1588 26.0717 29.4283C23.7126 31.1013 20.892 31.9999 18 31.9999C15.108 31.9999 12.2874 31.1013 9.92834 29.4283ZM13.3333 16.6667C13.3333 15.7437 13.607 14.8414 14.1198 14.074C14.6326 13.3066 15.3614 12.7084 16.2141 12.3552C17.0669 12.002 18.0052 11.9096 18.9104 12.0897C19.8157 12.2697 20.6472 12.7142 21.2998 13.3668C21.9525 14.0195 22.3969 14.851 22.577 15.7562C22.7571 16.6615 22.6646 17.5998 22.3114 18.4525C21.9582 19.3052 21.3601 20.0341 20.5927 20.5469C19.8252 21.0596 18.923 21.3333 18 21.3333C16.7623 21.3333 15.5753 20.8417 14.7002 19.9665C13.825 19.0913 13.3333 17.9043 13.3333 16.6667ZM29 26.6567C27.7037 25.0079 26.0514 23.6735 24.1667 22.7533C25.3678 21.537 26.1824 19.9926 26.508 18.3144C26.8336 16.6362 26.6556 14.8993 25.9965 13.322C25.3373 11.7447 24.2265 10.3976 22.8036 9.45009C21.3808 8.5026 19.7095 7.99706 18 7.99706C16.2905 7.99706 14.6193 8.5026 13.1964 9.45009C11.7735 10.3976 10.6627 11.7447 10.0035 13.322C9.34437 14.8993 9.1664 16.6362 9.49199 18.3144C9.81758 19.9926 10.6322 21.537 11.8333 22.7533C9.94862 23.6735 8.29632 25.0079 7.00001 26.6567C5.37175 24.5926 4.35758 22.1117 4.07359 19.4981C3.78961 16.8845 4.24728 14.2437 5.39422 11.8781C6.54116 9.5125 8.33102 7.51762 10.5589 6.12186C12.7868 4.72609 15.3627 3.98584 17.9917 3.98584C20.6207 3.98584 23.1965 4.72609 25.4244 6.12186C27.6523 7.51762 29.4422 9.5125 30.5891 11.8781C31.7361 14.2437 32.1937 16.8845 31.9097 19.4981C31.6258 22.1117 30.6116 24.5926 28.9833 26.6567H29Z" fill="white"/>
</svg>