<svg xmlns="http://www.w3.org/2000/svg" width="36" height="36" viewBox="0 0 36 36" fill="none">
  <path d="M15.2542 32.6667C15.2542 33.3259 15.0752 33.9704 14.74 34.5186C14.4048 35.0667 13.9283 35.494 13.3708 35.7463C12.8134 35.9986 12.2 36.0646 11.6082 35.936C11.0163 35.8073 10.4727 35.4899 10.0461 35.0237C9.61941 34.5575 9.32884 33.9636 9.21113 33.317C9.09341 32.6704 9.15383 32.0001 9.38474 31.3911C9.61565 30.782 10.0067 30.2614 10.5084 29.8951C11.0101 29.5288 11.5999 29.3333 12.2033 29.3333C13.0125 29.3333 13.7885 29.6845 14.3606 30.3096C14.9327 30.9348 15.2542 31.7826 15.2542 32.6667ZM28.0677 29.3333C27.4643 29.3333 26.8744 29.5288 26.3727 29.8951C25.871 30.2614 25.48 30.782 25.2491 31.3911C25.0182 32.0001 24.9578 32.6704 25.0755 33.317C25.1932 33.9636 25.4837 34.5575 25.9104 35.0237C26.3371 35.4899 26.8807 35.8073 27.4725 35.936C28.0643 36.0646 28.6777 35.9986 29.2352 35.7463C29.7927 35.494 30.2691 35.0667 30.6044 34.5186C30.9396 33.9704 31.1185 33.3259 31.1185 32.6667C31.1185 31.7826 30.7971 30.9348 30.2249 30.3096C29.6528 29.6845 28.8768 29.3333 28.0677 29.3333ZM35.919 9.255L31.7561 24.0383C31.4904 24.9944 30.9495 25.8313 30.2139 26.4249C29.4783 27.0184 28.5871 27.337 27.6726 27.3333H12.6503C11.7227 27.33 10.821 26.9984 10.0805 26.3882C9.33986 25.7779 8.8002 24.9219 8.54234 23.9483L3.32694 4H1.8305C1.34502 4 0.879427 3.78929 0.536141 3.41421C0.192856 3.03914 0 2.53043 0 2C0 1.46957 0.192856 0.960859 0.536141 0.585786C0.879427 0.210714 1.34502 0 1.8305 0H3.78609C4.44864 0.00223639 5.09267 0.239137 5.62156 0.675163C6.15045 1.11119 6.53568 1.72283 6.71946 2.41833L7.83149 6.66667H34.1694C34.4558 6.66664 34.7383 6.74008 34.9941 6.88108C35.2498 7.02207 35.4717 7.22669 35.6419 7.47847C35.8121 7.73024 35.9259 8.02215 35.974 8.3307C36.0221 8.63926 36.0033 8.95585 35.919 9.255ZM31.6905 10.6667H8.8764L12.063 22.85C12.0995 22.9894 12.1766 23.112 12.2825 23.1992C12.3885 23.2864 12.5176 23.3335 12.6503 23.3333H27.6726C27.8032 23.3336 27.9304 23.2881 28.0356 23.2035C28.1408 23.1189 28.2183 22.9997 28.2568 22.8633L31.6905 10.6667Z" fill="white"/>
</svg>