<svg width="176" height="176" viewBox="0 0 176 176" fill="none" xmlns="http://www.w3.org/2000/svg">
<rect width="176" height="176" fill="#F5F5F5"/>
<g id="Sign in/Sign up" clip-path="url(#clip0_0_1)">
<rect width="1280" height="832" transform="translate(-236 -160)" fill="white"/>
<g id="Cards 04">
<rect x="-124" y="-41" width="467" height="663" rx="32" fill="#D7E9F7"/>
<g id="Img">
<path id="Star 5" d="M145.695 48.4228C147.078 43.2612 154.402 43.2612 155.785 48.4228C166.082 86.849 196.194 116.858 234.639 127.084C239.821 128.462 239.821 135.827 234.639 137.206C196.194 147.431 166.082 177.44 155.785 215.867C154.402 221.028 147.078 221.028 145.695 215.867C135.398 177.44 105.286 147.431 66.8417 137.206C61.6598 135.827 61.6598 128.462 66.8417 127.084C105.286 116.858 135.398 86.849 145.695 48.4228Z" fill="white" stroke="black"/>
<path id="Star 4" d="M82.9492 4.68194C84.3267 -0.458597 91.6208 -0.458598 92.9983 4.68194C103.257 42.9655 133.258 72.8634 171.56 83.0509C176.72 84.4235 176.72 91.7587 171.56 93.1314C133.258 103.319 103.257 133.217 92.9983 171.5C91.6208 176.641 84.3267 176.641 82.9492 171.5C72.6902 133.217 42.6899 103.319 4.38788 93.1314C-0.772854 91.7587 -0.772854 84.4235 4.38788 83.0509C42.6899 72.8634 72.6902 42.9655 82.9492 4.68194Z" stroke="black"/>
<path id="Star 6" d="M169.401 0.827923C169.551 -0.640783 171.694 -0.640779 171.845 0.827923C172.578 7.98229 178.244 13.6462 185.401 14.3618C186.869 14.5086 186.869 16.6478 185.401 16.7946C178.244 17.5103 172.578 23.1741 171.845 30.3285C171.694 31.7972 169.551 31.7972 169.401 30.3285C168.668 23.1741 163.001 17.5103 155.844 16.7946C154.377 16.6478 154.377 14.5086 155.844 14.3618C163.001 13.6462 168.668 7.98229 169.401 0.827923Z" fill="white" stroke="black"/>
</g>
</g>
</g>
<defs>
<clipPath id="clip0_0_1">
<rect width="1280" height="832" fill="white" transform="translate(-236 -160)"/>
</clipPath>
</defs>
</svg>
